<?xml version="1.0" encoding="utf-8"?>
<!-- Generator: Adobe Illustrator 16.0.4, SVG Export Plug-In . SVG Version: 6.00 Build 0)  -->
<!DOCTYPE svg PUBLIC "-//W3C//DTD SVG 1.1//EN" "http://www.w3.org/Graphics/SVG/1.1/DTD/svg11.dtd">
<svg version="1.1" id="Layer_1" xmlns="http://www.w3.org/2000/svg" xmlns:xlink="http://www.w3.org/1999/xlink" x="0px" y="0px"
	 width="111px" height="217px" viewBox="0 0 111 217" enable-background="new 0 0 111 217" xml:space="preserve">
<path fill="#06C5F9" d="M51.039,9.574c0,0-1.834-1.167-1.834,5.333s5.339,34.162,1.589,48.162s-4.5,24-27.922,54.839
	c-20.323,26.758-16.045,53.242-12.578,61.91c6.5,16.25,11.744,26.755,47.744,30.421s46.835-38.169,46.501-55.503
	c-0.333-17.332-0.833-26.834-16-51.167C73.373,79.237,58.346,65.907,54.291,27.541c-3.747-35.473,0.414,4.7-0.586-5.466
	S51.039,9.574,51.039,9.574z"/>
<path fill="#FFFFFF" d="M47.434,137.234c0,0-7.64,10.5-4.64,21.5s6,15.25,3.5,23.75s-5.146,11.25-4.198,13.75
	c0.948,2.5,4.198,3,6.448-3.25s5.75-13.25,3.75-19.75c0,0,4.5-3,4-0.5s-2.673,8.75,0.038,15.25c2.712,6.5,2.997,8.979,6.104,9.99
	c3.107,1.01,3.357-1.74,2.607-3.74s-8-7.25-3.75-20s10.25-27-0.25-34.25S52.572,133.234,47.434,137.234z"/>
<path fill="#FFFFFF" d="M55.895,74.568c0,0-0.601,16.75-8.601,26.5c-8,9.75-22,23.5-23.5,37.25s0.25,10.75,1.75,11.5s2.75-2,2.5-7
	s4.027-7.75,11.514-10c7.487-2.25,19.486-7.25,21.236-2.25s5.75,14.5,13.75,17.75s3.75-6,1.25-8.75s-11.25-10.129-9.5-27.314
	c1.75-17.186,2.75-25.936-2.25-32.936s-4.351-8.25-6.25-6.5L55.895,74.568z"/>
<path fill="#06C5F9" d="M58.794,86.318c0,0-0.75,8.5-6.5,16.25c-5.75,7.75-15.75,20.5-18,23.5s-3.5,5,2.75,2.5s11.25-5,17.25-6
	s6.5-0.75,6.5-5.25s2.5-10.25,2.5-16S60.291,79.811,58.794,86.318z"/>
<path fill="#FFFFFF" d="M70.754,114.818c0,0-3.75,8,6,19.75s2.582,22.25-6.709,31.75s-8.291,27,1.959,27.5s18.75-11,22.25-24
	s5.25-31.75-2.75-45.75S78.004,102.568,70.754,114.818z"/>
<path fill="#06C5F9" d="M80.428,116.318c0,0-7.174-3.75-3.424,8.5s13.5,19.5,7.25,30s-20,28.75-13.25,32.25s19.75-13,20.5-21.75
	s-0.25-12,0-22.5S84.602,118.318,80.428,116.318z"/>
<path fill="#FFFFFF" d="M71.504,191.818c0,0-1.75,4,0,5.75s5.25,0,4.5-7.75s1.561-9.752-2.586-8.5S74.004,187.568,71.504,191.818z"
	/>
<path fill="#FFFFFF" d="M17.329,157.029c0,0,0.25,18.75,4.25,23.75s14.25,17,18.75,9.25s5.25-14.75,0-26.5s-2.25-20.25-0.75-23
	s2-6.25-4.25,0s-3.75,15.795-0.25,24.271s7.565,26.495-4.418,16.979c-11.984-9.52-7.832-26-7.332-27.25
	S16.755,147.537,17.329,157.029z"/>
<path fill="#06C5F9" d="M50.294,166.734h8.25c0,0,2.25-6,3.75-13s-9.25-16.75-12-10S45.544,153.734,50.294,166.734z"/>
</svg>
